# xmcd CD database file
#
# Track frame offsets:
#	150
#	18363
#	39423
#	77563
#	89488
#	109946
#	131127
#	153331
#	164309
#	184770
#	214316
#	235511
#	254410
#	289224
#
# Disc length: 4195 seconds
#
# Revision: 0
# Processed by: cddbd v1.5.2PL0 Copyright (c) Steve Scherf et al.
# Submitted via: CDex 1.51
#
DISCID=bc10610e
DTITLE=Krypton City Blues Revue - Live!
DYEAR=1900
DGENRE=Blues
TTITLE0=You Say You Love Me So Much, Baby
TTITLE1=Gimme Back My Wig
TTITLE2=Stormy Monday
TTITLE3=Come On In My Kitchen
TTITLE4=Trouble In Mind
TTITLE5=Can't Be Satisfied
TTITLE6=She Moves Me
TTITLE7=I Want To Be Loved
TTITLE8=Walking In The Park
TTITLE9=Can't Lose What You Ain't Never Had
TTITLE10=Mean Old Frisco Blues
TTITLE11=She's Tough
TTITLE12=Long Distance Call
TTITLE13=Caledonia
EXTD=
EXTT0=
EXTT1=
EXTT2=
EXTT3=
EXTT4=
EXTT5=
EXTT6=
EXTT7=
EXTT8=
EXTT9=
EXTT10=
EXTT11=
EXTT12=
EXTT13=
PLAYORDER=
